<svg width="52" height="59" viewBox="0 0 52 59" fill="none" xmlns="http://www.w3.org/2000/svg">
<g clip-path="url(#clip0_1_68)">
<path d="M1.651 29.9905L1.47387 29.8946C1.08387 29.6457 0.779997 29.2806 0.568747 28.8086C0.263247 28.1744 0.128372 27.5789 0.128372 26.9649L0.170622 26.6478C0.170622 26.1573 0.281122 25.7167 0.476122 25.2945L0.653247 24.9294C0.737747 24.7284 0.864497 24.5551 0.974997 24.391C1.10987 24.2177 1.12775 23.9965 1.0855 23.7955L0.974997 23.4009C0.848247 22.9105 0.763747 22.4219 0.763747 21.9315L0.695497 21.6346C0.695497 21.087 0.822247 20.5486 1.12775 20.1559L1.34712 19.8388C1.49987 19.5899 1.73712 19.4442 1.99875 19.3484C2.21 19.2709 2.36275 19.022 2.38875 18.7344L2.431 17.8992C2.431 17.2373 2.7105 16.6215 3.14275 16.1697L3.66762 15.7272C3.77 15.6111 3.87887 15.4875 3.96337 15.2847C4.07387 15.1409 4.09825 14.9381 4.07387 14.7943C4.03162 14.5546 4.07387 14.4772 4.18437 14.4477C4.53212 14.6007 4.7515 14.5528 4.90425 14.3518L5.18375 13.9388L5.96212 12.9505C6.1815 12.7109 6.26762 12.2591 6.13112 11.9236L5.87762 11.2801C5.83537 11.1363 5.87762 10.963 5.98812 10.915C6.26762 10.915 6.46262 11.0312 6.54712 11.2322L6.63162 11.4055C6.7665 11.7023 7.072 11.848 7.28325 11.7226C7.75775 11.5309 8.15425 11.4829 8.51825 11.4829H9.21212C9.68662 11.4829 10.075 11.1086 10.1692 10.5426C10.2537 9.86042 10.465 9.31283 10.7705 8.94777C11.1004 8.52555 11.4644 8.20842 11.8966 7.95952C12.4637 7.62396 12.8115 7.1243 12.9204 6.49005C13.0731 5.70277 13.4371 5.13674 13.936 4.77167L15.587 3.71521L16.0615 3.38886C16.341 3.19711 16.6026 2.94636 16.8236 2.64952L17.2559 2.06321C17.4671 1.8143 17.6881 1.65021 17.9497 1.57277C18.161 1.49533 18.4665 1.44739 18.7281 1.47689L19.591 1.54327C20.0232 1.54327 20.3694 1.66864 20.7171 1.84011L20.9365 1.96549C21.1559 2.06136 21.3687 2.01342 21.4776 1.84011L21.6726 1.71474L22.6037 0.61033C22.8231 0.361424 23.0782 0.263705 23.3659 0.313487C23.6454 0.361424 23.9249 0.486799 24.1865 0.63983C24.5765 0.879518 24.8982 0.975393 25.2704 0.975393H25.4897C25.9642 0.975393 26.4371 1.05283 26.9197 1.17636L27.2415 1.27224C27.5632 1.36811 27.8931 1.2243 28.1044 0.925611C28.1726 0.800236 28.3237 0.781799 28.4099 0.877674C28.4781 0.925612 28.4944 0.973549 28.5204 1.05099C28.5626 1.54142 28.8259 1.91571 29.172 2.03002L29.5197 2.15539C29.8837 2.28077 30.2136 2.54996 30.4249 2.89474C30.6442 3.2598 30.9075 3.63408 31.2032 3.87377L31.4226 4.12267C31.642 4.37158 31.9394 4.4693 32.2432 4.4398H33.5205C34.0454 4.4398 34.5442 4.54489 35.0447 4.78642C35.5192 5.03533 36.0181 5.08327 36.4666 4.8823C36.9492 4.71821 37.4481 4.64261 37.947 4.71821L38.8781 4.8823C39.3104 4.93946 39.741 5.17914 40.0042 5.55527L40.1147 5.67142C40.326 5.92033 40.547 6.23746 40.7582 6.58408C40.8931 6.90121 41.1986 7.07452 41.4944 7.07452H42.8399C43.1697 7.07452 43.4915 7.15196 43.7547 7.32342C44.0342 7.56311 44.2715 7.81386 44.4909 8.06277L44.7021 8.37989C44.9637 8.72652 45.0921 9.18746 45.0742 9.68527C45.0742 10.0798 45.3359 10.4154 45.6755 10.4154L46.1159 10.4725C46.4214 10.4725 46.6749 10.7122 46.8276 11.0294L47.047 11.529L47.606 12.9505C47.6986 13.1995 47.7165 13.441 47.6986 13.642C47.6986 13.8816 47.7571 14.0845 47.9099 14.1803L48.1292 14.3536C48.4087 14.6025 48.5615 14.9676 48.5192 15.3917L48.3665 16.544L48.3242 17.0345C48.282 17.2834 48.3827 17.6005 48.5859 17.7738C48.9076 18.0135 49.0604 18.3398 49.0766 18.7049V19.1953C49.0766 19.4442 49.0344 19.7429 48.8654 19.9347C48.7305 20.1356 48.646 20.3772 48.646 20.674L48.7142 21.24C48.7142 21.6346 48.9255 21.9794 49.1465 22.2191C49.452 22.468 49.621 22.8625 49.6714 23.2571C49.7559 23.8711 49.7737 24.3615 49.7737 24.852V25.418C49.7737 25.619 49.7737 25.8125 49.842 26.0043C49.8842 26.1776 49.9947 26.3509 50.1215 26.456L50.5537 26.8211C50.9941 27.1382 51.298 27.5604 51.4686 28.1265C51.688 28.6648 51.7481 29.2309 51.7481 29.7969V29.9886C51.7481 30.4311 51.7059 30.9013 51.5791 31.3143C51.4686 31.766 51.4946 32.179 51.6376 32.5441C51.8147 32.8907 51.9252 33.2834 51.9675 33.7056C52.052 34.1961 52.0097 34.6847 51.857 35.0792L51.8147 35.2525C51.7042 35.5494 51.5352 35.8186 51.3159 36.0398C51.0965 36.2887 50.8836 36.4344 50.7569 36.6059C50.622 36.7497 50.5375 37.0004 50.6041 37.2198L50.6626 37.5665C50.7731 38.0569 50.7731 38.5455 50.6626 38.988V39.189C50.5781 39.554 50.4514 39.8711 50.3149 40.168C50.1621 40.4851 49.9509 40.734 49.6714 40.9073L49.3415 41.147C49.1887 41.2521 49.0799 41.4734 49.0799 41.6946C49.0799 41.9343 48.9954 42.185 48.8686 42.3289L48.5387 42.8285C48.3275 43.1456 48.048 43.4148 47.7425 43.5586C47.437 43.8075 47.1754 44.0583 46.9804 44.298C46.761 44.5948 46.5904 44.9415 46.5059 45.2862C46.4214 45.7287 46.1159 45.9684 45.786 45.9684H44.6176C44.3121 45.9684 44.0342 46.2173 43.9059 46.516C43.7531 46.8995 43.6004 47.1779 43.407 47.4195C43.1876 47.6684 43.0592 47.967 42.9666 48.3026C42.9244 48.5995 42.7131 48.8023 42.4921 48.6972C42.2126 48.5534 41.9331 48.6972 41.7982 48.9461C41.5447 49.4365 41.2815 49.8108 41.002 50.1279L40.8492 50.2717C40.5616 50.5206 40.1976 50.7142 39.8677 50.7142C39.4777 50.7142 39.2844 50.9152 39.2242 51.2047C39.156 51.4536 39.1137 51.7707 39.0894 52.0491C39.0471 52.3367 38.9626 52.6059 38.8781 52.8567L38.7676 53.0005C38.5482 53.3748 38.3776 53.7398 38.1582 54.057L38.0737 54.21C37.7942 54.623 37.4221 54.9493 36.9899 55.0655C36.465 55.2665 36.0165 55.3144 35.5599 55.3144H35.2544C35.0431 55.3144 34.8221 55.4582 34.671 55.709L34.5442 55.9579L34.4094 56.2455L34.1299 56.7931C33.9105 57.2356 33.5887 57.5232 33.1565 57.6762C32.7242 57.8016 32.2254 57.8495 31.7687 57.82L31.421 57.7721C31.1155 57.7721 30.8376 57.6762 30.5581 57.5232C30.3387 57.4273 30.0332 57.5232 29.9065 57.7721C29.6871 58.1187 29.4239 58.3105 29.1444 58.4156L28.4927 58.6553C28.0605 58.7806 27.5876 58.7806 27.1294 58.6553L26.7816 58.5299C26.5704 58.5299 26.3494 58.4137 26.1722 58.2902C25.961 58.1648 25.74 58.1169 25.5287 58.1372L25.2411 58.1943C24.8089 58.2423 24.4205 58.1943 24.0305 58.069L23.4471 57.9159C23.1855 57.82 22.9482 57.6283 22.7955 57.3499C22.685 57.1102 22.4477 56.9074 22.1439 56.8595H21.45C21.0177 56.7931 20.6294 56.6198 20.3661 56.2455L19.5032 55.3144L19.1977 55.0175L18.7232 54.623L18.4437 54.3833C18.1139 54.1344 17.7239 53.9408 17.3095 53.8929L16.0144 53.644C15.8795 53.644 15.795 53.596 15.6666 53.5665L15.1677 53.4411C14.9484 53.3932 14.7355 53.2015 14.5844 52.9507C14.4576 52.711 14.2122 52.6041 14.001 52.711C13.5687 52.9028 13.2226 52.9507 12.8749 53.0281H12.5694C12.0022 53.0761 11.4855 52.9802 10.9606 52.711C10.4439 52.4621 10.0977 52.097 9.776 51.625C9.51437 51.2028 9.12437 50.8857 8.64175 50.7898L8.0405 50.646C7.60825 50.5409 7.1695 50.3492 6.7795 50.0505C6.34725 49.7039 6.12787 49.3886 5.95887 48.994C5.78987 48.629 5.67937 48.2067 5.65337 47.7642V47.5725C5.61112 47.0728 5.30562 46.6322 4.89937 46.516C4.4005 46.3427 4.02837 46.0938 3.70662 45.7767C3.40112 45.4503 3.224 44.9894 3.224 44.499L3.27437 43.413C3.27437 42.9908 3.16387 42.6257 2.90225 42.3565C2.64062 42.0597 2.47 41.6946 2.47 41.3L2.40175 40.4169C2.3595 39.7734 2.249 39.1392 2.12225 38.4957C1.9955 37.9297 2.1905 37.3618 2.59675 37.0945L2.7495 36.9691C2.96887 36.7958 3.055 36.4786 2.92662 36.1818L2.7495 35.9421C2.53825 35.6932 2.31725 35.5199 2.09787 35.4517C1.92887 35.3945 1.88662 35.2028 1.88662 35.0774L2.09787 34.7805C2.23275 34.6072 2.20837 34.338 2.09787 34.1942C1.92887 33.9933 1.84437 33.7517 1.81837 33.5028L1.77612 31.7845C1.77612 31.4378 1.81837 31.093 1.90287 30.7575C1.9955 30.4606 1.90287 30.114 1.64937 29.9702L1.651 29.9905ZM23.0977 26.7436C23.2505 26.5703 23.2245 26.2532 23.0977 26.1297C22.8784 25.9379 22.7256 25.7167 22.5989 25.4678L22.3795 25.0732C22.2349 24.7561 22.0415 24.4869 21.8205 24.238L21.7782 24.19C21.5589 23.9983 21.4061 23.7475 21.2794 23.4507C21.1689 23.211 21.1689 22.9603 21.2794 22.7114L21.4061 22.4717C21.541 22.2228 21.6255 21.8761 21.6255 21.5885V21.4834C21.6255 21.2437 21.541 20.993 21.4061 20.7533C21.3216 20.5523 21.2371 20.3108 21.1949 20.0619V19.9181C21.1266 19.6212 21.1949 19.3041 21.3639 19.0534C21.541 18.7362 21.6694 18.4394 21.736 18.0743V18.0172C21.8205 17.7775 21.7782 17.4604 21.6434 17.2096C21.5166 16.9607 21.4744 16.7192 21.5589 16.4223L21.7116 15.9319C21.8384 15.4894 22.0415 15.0967 22.295 14.75L22.6005 14.385L22.8199 14.0881L22.9466 13.9443C23.0734 13.7913 23.0994 13.5498 22.9889 13.3488C22.8784 13.0999 22.8199 12.8584 22.8621 12.6095L22.9044 12.2628C22.9726 11.7724 23.1237 11.2838 23.4032 10.8892L23.4877 10.7934C23.8095 10.3029 24.2239 9.97658 24.6984 9.80511L25.2915 9.56542C25.545 9.46955 25.7237 9.14321 25.7237 8.82608C25.7237 8.43152 25.8342 8.08674 26.0276 7.76961L26.13 7.64424C26.3494 7.23124 26.6126 6.80902 26.7816 6.36652L26.9344 6.04939C26.9766 5.97196 27.0026 5.87608 27.0026 5.80049C27.0026 5.38749 26.7832 5.01321 26.4355 4.99292L25.4881 4.91549C24.947 4.86755 24.4042 4.91549 23.8794 4.91549L22.0431 5.16439C21.7555 5.16439 21.5442 5.40408 21.5182 5.75071C21.5182 6.09733 21.2989 6.39417 21.0437 6.49005L20.2654 6.72974L20.046 6.80717L19.3944 7.05608C18.9199 7.22939 18.5315 7.62211 18.3105 8.16049L18.1415 8.47761C17.9221 9.02521 17.5581 9.46586 17.0999 9.78299C16.6676 10.1001 16.4482 10.6182 16.406 11.2045V11.4534C16.3637 11.9439 16.2289 12.4325 15.9737 12.7791L15.8632 12.98C15.6861 13.2197 15.6439 13.5461 15.7527 13.8153C15.8632 14.1029 15.9299 14.4292 15.9055 14.7464V16.0517C15.9055 16.3984 15.6861 16.686 15.4732 16.7819C15.1677 16.9072 14.9744 17.1764 14.8899 17.5212L14.7794 18.0116C14.6949 18.5113 14.8476 18.9999 15.2116 19.2986C15.5594 19.5862 15.7787 20.0287 15.8632 20.5763V21.0188C15.9315 21.5092 16.1687 21.9978 16.5571 22.2486C16.9471 22.5454 17.251 22.9879 17.42 23.4784L17.5305 23.8729C17.7076 24.4113 18.0976 24.7284 18.5299 24.7764H18.6566C19.0466 24.7764 19.3927 25.0253 19.6137 25.4198C19.825 25.8144 20.1727 26.0817 20.5611 26.1592L21.1705 26.3509C21.5426 26.4763 21.8904 26.6975 22.1699 27.0128L22.2121 27.07C22.4315 27.2617 22.7792 27.2341 22.9742 26.9649L23.127 26.7731L23.0977 26.7436ZM25.5677 24.4869C25.779 24.6307 26 24.5533 26.0845 24.3339L26.1527 24.2177C26.3055 23.8711 26.5005 23.5263 26.7117 23.2295L27.1521 22.4901C27.2106 22.4901 27.2366 22.4422 27.2545 22.3942L27.7794 21.607C27.9987 21.3673 28.2539 21.194 28.5577 21.194C28.8372 21.194 29.0826 21.0206 29.2094 20.7035C29.2939 20.3569 29.4206 20.0305 29.6839 19.7632L29.7944 19.6194C30.0137 19.3705 30.2266 19.2451 30.446 19.129C30.7255 19.081 30.9871 19.0239 31.2504 19.0239H31.8939C32.1555 19.0239 32.3765 18.9077 32.5032 18.6588C32.63 18.4099 32.825 18.2458 33.0444 18.1204L33.2637 18.0153C33.6115 17.8512 33.9999 17.7277 34.3899 17.6798L34.8221 17.6318C35.0837 17.6318 35.3632 17.6318 35.6265 17.7959C35.8377 17.9692 36.1254 17.949 36.3382 17.748L36.491 17.6521C36.8127 17.4032 37.1849 17.2096 37.5749 17.1617H37.6171C38.0494 17.0658 38.4377 17.0658 38.8781 17.0842H39.0894C39.5216 17.1617 39.8937 17.3331 40.1732 17.6982L40.2415 17.7941C40.4609 18.043 40.8005 18.2458 41.1044 18.2458H41.4765C41.587 18.2458 41.6877 18.1886 41.756 18.0725C41.8242 17.995 41.9331 17.9195 42.0355 17.9195H42.2549C42.5604 17.9195 42.8382 18.0153 43.1177 18.1204L43.4899 18.2937C43.8376 18.4099 44.2016 18.5334 44.5737 18.5814H44.8354C45.0044 18.5814 45.1149 18.4652 45.1149 18.2937C45.1149 18.0448 45.0726 17.7941 44.9621 17.6023L44.8094 17.2078C44.6404 16.8906 44.5039 16.5459 44.3771 16.2287L44.3349 16.1034C44.2244 15.8545 44.2244 15.6129 44.3349 15.364V15.2386C44.3771 15.0469 44.2926 14.8256 44.1155 14.7482H43.9465C43.5987 14.6228 43.2949 14.4016 43.0755 14.0863L42.8642 13.8374C42.6449 13.5977 42.5165 13.2234 42.4239 12.8584C42.3215 12.5412 42.0859 12.2923 41.7804 12.2923H40.8655C40.5437 12.2444 40.2561 12.0434 40.0611 11.754L39.9766 11.6286C39.8239 11.3797 39.6971 11.0902 39.6126 10.7934C39.5021 10.5445 39.2649 10.3988 39.0455 10.4762L38.7839 10.5721C38.3516 10.7454 37.921 10.8118 37.4887 10.7639L37.141 10.7159C36.7689 10.7159 36.4211 10.5426 36.1416 10.3029L35.9222 10.1296C35.7532 9.97658 35.5842 9.88071 35.3811 9.78299C35.1699 9.68711 34.9911 9.73505 34.8644 9.90836L34.7539 10.0522C34.5426 10.3011 34.2371 10.4947 33.9332 10.5426L32.7649 10.62C32.5455 10.62 32.3326 10.7454 32.1815 10.9169C32.0044 11.0902 31.8094 11.2045 31.5884 11.2525H31.5461C31.3349 11.2525 31.1139 11.4258 30.9026 11.5991V11.647C30.6832 11.8959 30.4037 12.0213 30.1161 12.0213L30.0316 12.0692C29.77 12.0692 29.5149 12.0692 29.2532 12.1467H28.9916C28.6276 12.213 28.34 12.5597 28.2555 13.0022L28.171 13.5682C28.1027 13.9628 27.9516 14.3075 27.7387 14.6247C27.5194 14.9215 27.2561 15.1151 26.9344 15.1151H26.5704C26.351 15.1723 26.13 15.4415 26.1722 15.7291C26.2226 16.1513 26.1722 16.5164 26.1137 16.8906L26.0292 17.3036C25.9366 17.6779 25.7237 17.9655 25.4361 18.0909L25.3094 18.1684H25.2671C25.1404 18.2642 25.0477 18.4855 25.1566 18.6588C25.2915 18.9077 25.3337 19.1492 25.3094 19.3981L25.2411 20.1854C25.2411 20.473 25.1387 20.7515 25.0299 20.993C24.895 21.2419 24.895 21.4834 24.9876 21.7323L25.1989 22.2707C25.3094 22.5196 25.3337 22.7704 25.2671 23.058C25.1989 23.3069 25.1566 23.5484 25.1826 23.7973C25.1826 24.0462 25.3094 24.2878 25.4881 24.3929L25.5677 24.4869ZM42.6822 42.2625C42.9016 42.5022 43.2234 42.598 43.4866 42.4063L43.9189 42.0892C44.1382 41.9159 44.3089 41.667 44.3934 41.3498V41.3019L44.6127 40.5625L44.7395 40.3136L44.8321 40.074L44.9166 39.9006C45.0011 39.6997 45.1279 39.554 45.3489 39.4784L45.4334 39.4305C45.6105 39.3825 45.721 39.1908 45.721 38.988C45.721 38.7483 45.8234 38.5455 45.9322 38.374L46.1094 38.2007L46.5416 37.5665V37.5185C46.6684 37.3176 46.7529 37.0963 46.8032 36.8455C46.8455 36.6059 46.8032 36.3551 46.7106 36.1154L46.6684 36.0103C46.5839 35.7706 46.5416 35.5973 46.5156 35.3761L46.4571 34.6847L46.3889 33.9453C46.3889 33.7056 46.4734 33.4549 46.6082 33.2152C46.7529 33.0142 46.8617 32.7635 46.956 32.5238V32.4279L46.9982 32.38C47.0405 32.1311 46.93 31.8803 46.7366 31.8803C46.5172 31.7642 46.3044 31.5632 46.2377 31.2664L46.1695 31.1225C46.0671 30.68 46.0005 30.2394 46.0005 29.7969L46.0427 28.5671V28.4897C46.0427 28.0767 45.7372 27.7503 45.3911 27.7503H45.3489C44.9166 27.7503 44.5705 27.6065 44.265 27.2599L44.096 27.011L43.6556 26.4542L43.0966 25.7148C42.8772 25.3682 42.6644 25.0714 42.3767 24.7745C42.1655 24.5348 41.8356 24.2841 41.5139 24.2361L41.0816 24.1587C40.8622 24.1108 40.5827 23.9946 40.3455 23.8231C40.1684 23.6701 39.9132 23.718 39.7361 23.919L39.4566 24.2656L39.3217 24.3615C39.169 24.4095 39.026 24.3136 38.9577 24.1126C38.8732 23.825 38.8732 23.4784 39 23.1815V23.0377C39 22.8644 38.8732 22.7409 38.7384 22.7888H38.3906C38.0006 22.7888 37.6122 22.7409 37.2482 22.5491L37.0289 22.444C36.8095 22.3186 36.5544 22.2523 36.3171 22.2523C36.0977 22.2523 35.8767 22.3002 35.6655 22.444L35.581 22.5215C35.3194 22.7132 35.0139 22.8183 34.71 22.8386H33.9982C33.6684 22.8386 33.3466 22.964 33.1272 23.1649C32.8477 23.3567 32.5439 23.482 32.2221 23.5484L31.6387 23.6535C31.3771 23.7199 31.0976 23.8453 30.8522 24.0665C30.641 24.3154 30.3355 24.4611 30.056 24.557L29.9455 24.6141C29.5977 24.7303 29.2939 24.9792 29.0826 25.3442L28.821 25.6411C28.6682 25.89 28.6682 26.1795 28.821 26.4284C28.9477 26.6773 29.211 26.7455 29.4726 26.6773L29.7944 26.5242C29.9634 26.4579 30.1665 26.5242 30.3111 26.6201C30.446 26.7455 30.641 26.8211 30.836 26.7934L31.3771 26.727C31.6826 26.727 31.9865 26.727 32.2822 26.8229C32.6121 26.9483 32.8916 27.0718 33.1532 27.3134C33.4149 27.5623 33.6944 27.66 34.0161 27.7079C34.346 27.7559 34.6677 27.8333 34.9732 27.9568L35.1845 28.0048C35.4039 28.0822 35.5826 28.2445 35.7094 28.4952C35.8199 28.6962 35.9206 28.9856 35.9206 29.2345V29.312C35.9206 29.5996 36.14 29.8024 36.361 29.8024H36.4877C36.8355 29.8024 37.2076 29.8504 37.5716 29.9757L37.7244 30.0421C37.9437 30.1472 38.1566 30.291 38.3077 30.5418C38.4849 30.7815 38.5872 31.0322 38.6555 31.2719L38.7237 31.6185C38.7822 31.9928 38.8082 32.3579 38.8082 32.7524V32.8778C38.8082 33.1175 38.961 33.3682 39.1982 33.4641C39.4176 33.512 39.6727 33.6171 39.9181 33.761L40.0205 33.8089C40.3081 34.0006 40.5876 34.2514 40.7989 34.5482L40.9094 34.7215C41.197 35.0866 41.3416 35.5568 41.3416 36.0177V36.191C41.3416 36.5653 41.2831 36.9304 41.1726 37.277C41.0881 37.5738 41.1726 37.9205 41.4521 38.0163L41.6049 38.1417C41.9347 38.2855 42.2142 38.5547 42.4255 38.8718C42.6449 39.2461 42.731 39.6591 42.731 40.1016V40.841C42.6887 41.0899 42.6286 41.2835 42.5197 41.4549C42.4109 41.6264 42.4092 41.8771 42.5197 42.0505L42.6465 42.2901L42.6822 42.2625ZM28.8177 29.6734H28.7755C28.6829 29.6734 28.6406 29.7987 28.665 29.9223L28.7495 30.4127C28.834 30.8073 28.8762 31.2 28.9266 31.5945C28.9689 31.9891 29.1379 32.3247 29.4011 32.5736H29.4856C29.8155 32.8704 30.0105 33.3129 30.0267 33.7554V34.9852C29.9845 35.2249 30.0267 35.4756 30.1616 35.6766L30.264 35.7928C30.4834 36.0896 30.5695 36.4362 30.5939 36.781L30.6524 38.1343C30.6524 38.4515 30.4834 38.7206 30.2201 38.7686L30.0089 38.8165C29.8561 38.8165 29.7895 39.0175 29.7895 39.1908C29.7895 39.3825 29.8577 39.6038 29.9162 39.8048V39.8527C29.9845 40.0924 30.0089 40.3431 29.9845 40.592L29.9 41.254C29.8155 41.7444 29.6806 42.1851 29.4677 42.6275L29.315 42.9244C29.2045 43.1641 29.0534 43.319 28.8746 43.4148C28.6634 43.5107 28.5106 43.7117 28.4424 43.9532L28.2734 44.8364C28.1629 45.336 27.9679 45.8246 27.7062 46.315H27.664C27.4024 46.7096 27.0806 47.0544 26.6906 47.2941L26.429 47.495L25.7774 47.8601C25.5661 47.9652 25.4296 48.1865 25.3874 48.4556L25.285 49.2632C25.2167 49.7536 25.0656 50.1759 24.7601 50.493L24.4806 50.8673L24.1507 51.2323L23.829 51.6269C23.5674 51.9735 23.1774 52.1173 22.7451 52.0491L21.9667 51.8758L21.2469 51.7707H21.0519C20.9674 51.8758 20.9495 52.0196 21.0096 52.1653C21.1624 52.4621 21.3996 52.6649 21.6612 52.6649L22.1357 52.7608C22.3551 52.7608 22.6184 52.8862 22.8296 53.0005C23.049 53.1738 23.2619 53.2973 23.5235 53.3748H23.5657C23.8534 53.5001 24.1491 53.5186 24.4367 53.5001L24.7585 53.443C25.1306 53.3951 25.4784 53.443 25.7741 53.596L26.0357 53.6919C26.1462 53.7398 26.3152 53.6919 26.4257 53.5665C26.5606 53.4227 26.6874 53.3268 26.858 53.2494L27.0351 53.2015C27.3146 53.1056 27.5941 53.0484 27.898 53.0484H28.0751C28.3286 53.0484 28.574 53.1056 28.7869 53.2494L28.8714 53.2973C29.0241 53.3748 29.2012 53.2973 29.3117 53.1535C29.3702 52.9802 29.523 52.8069 29.6757 52.6631L30.2169 52.2409L30.5646 51.992L30.7417 51.8758C30.953 51.7025 31.2585 51.6269 31.5201 51.6269L32.2985 51.5495C32.604 51.5015 32.8656 51.2618 32.9501 50.9152C33.0346 50.5409 33.1614 50.1759 33.3824 49.8587C33.6017 49.5324 33.8146 49.2632 34.034 49.0235C34.3135 48.7746 34.593 48.6492 34.8969 48.629H35.074C35.4217 48.5515 35.6752 48.1865 35.6574 47.7937V46.1417C35.6996 45.902 35.7841 45.5757 35.9109 45.3342L36.3512 44.5948L36.5202 44.3459C36.6551 44.2205 36.7396 44.0583 36.8924 43.8555L37.1036 43.5384C37.2385 43.2895 37.2385 42.9723 37.0614 42.7511C36.8501 42.5022 36.7396 42.1555 36.6974 41.82V41.7149C36.6551 41.3203 36.6551 40.9073 36.7559 40.4851V40.369C36.8664 40.0426 37.0175 39.7255 37.1962 39.4286C37.3652 39.189 37.3409 38.8423 37.128 38.6414L36.7559 38.2763C36.4504 37.9795 36.2814 37.537 36.2391 37.0945L36.1969 36.604C36.1969 36.451 36.1969 36.2869 36.1546 36.1136L36.1124 35.7393C36.062 35.3263 35.8507 35 35.5452 34.7603L35.3925 34.7123C35.1731 34.5593 34.9602 34.3381 34.7831 34.0504C34.6141 33.8015 34.5296 33.4549 34.4614 33.1101L34.3931 32.6971C34.3931 32.5441 34.3086 32.4482 34.1819 32.38L33.1402 32.0057C32.9209 31.9578 32.708 31.766 32.5569 31.5927H32.5146C32.3797 31.3917 32.1669 31.3917 32.032 31.5355L31.8207 31.7845C31.7785 31.8619 31.7281 31.8803 31.668 31.8619C31.5331 31.8619 31.4486 31.7365 31.4909 31.613C31.5331 31.2184 31.4064 30.8257 31.1269 30.586L30.8392 30.3371L30.1957 29.8467C30.0186 29.7692 29.7554 29.8467 29.6709 30.0864L29.5864 30.2394C29.5864 30.2873 29.5181 30.3058 29.5019 30.3353C29.4092 30.3353 29.2825 30.3353 29.2825 30.2099L29.2142 30.0845C29.1557 29.9407 29.003 29.8448 28.8665 29.7969L28.8177 29.6734ZM26.2194 32.1311L26.1089 32.0057C25.9984 31.9098 25.8895 31.9283 25.779 32.0536C25.6262 32.3505 25.4995 32.6676 25.4312 32.994V33.0419C25.3727 33.359 25.1095 33.5803 24.8479 33.5323H24.5944C24.2889 33.5323 24.0532 33.8292 24.0532 34.1666C24.0532 34.6091 23.9184 35.059 23.6811 35.3964L23.5544 35.5494C23.335 35.8665 23.0132 36.0878 22.6834 36.2113L22.5144 36.2592C22.295 36.3367 22.1244 36.5081 22.0821 36.7976C22.0821 37.0465 21.9472 37.2973 21.7766 37.489L21.5572 37.6808C21.2956 38.0071 20.9056 38.1804 20.5156 38.2284L19.4317 38.3537C19.084 38.3537 18.7882 38.5934 18.5689 38.9677C18.3495 39.3328 18.0277 39.5817 17.706 39.6296L17.2234 39.6775C16.8756 39.7255 16.5116 39.7255 16.1395 39.6296L15.9282 39.5817L15.3351 39.4084C15.1239 39.3309 14.9451 39.4084 14.8184 39.5817L14.599 39.8988C14.3195 40.2639 13.9132 40.4372 13.5151 40.3892L12.1095 40.1975C11.8901 40.1975 11.7195 40.0721 11.5261 39.9486C11.3067 39.8048 11.154 39.6315 11.0012 39.4581L10.4601 38.7188C10.4016 38.6709 10.2911 38.6414 10.1806 38.6709L9.87512 38.8147L8.6645 39.1613C8.44512 39.2387 8.16562 39.1613 7.95275 39.0175C7.73337 38.8165 7.47012 38.7686 7.2085 38.7686H6.929C6.66737 38.846 6.49675 39.1631 6.58125 39.46L6.66575 39.9504C6.734 40.1993 6.71612 40.4888 6.60725 40.7377C6.49837 40.9866 6.52275 41.2281 6.66575 41.4771L6.80062 41.6688C6.96962 41.9656 7.23287 42.2164 7.45225 42.4561C7.6635 42.705 7.8845 42.9465 8.0535 43.2729L8.38337 43.9348C8.55237 44.2814 8.81562 44.4731 9.16175 44.4731C9.4835 44.4731 9.81337 44.5985 10.0669 44.8382L10.7185 45.5296C10.8956 45.7029 11.1507 45.7306 11.3279 45.5775L11.4384 45.5296C11.5651 45.5296 11.6496 45.6255 11.6496 45.7785V45.9039C11.6496 46.221 11.869 46.5179 12.1485 46.634L13.1219 46.8829C13.4696 47.0083 13.8157 47.1318 14.1456 47.3734H14.3146C14.4917 47.3734 14.6445 47.2 14.6201 46.9788V46.1233C14.6201 45.8744 14.7046 45.6236 14.8817 45.5278L14.9922 45.4798C15.0946 45.5278 15.2035 45.6236 15.1612 45.7287V46.1417C15.1612 46.4589 15.2457 46.7557 15.4407 46.977C15.6601 47.2259 15.9396 47.2738 16.1769 47.1779C16.4385 47.0525 16.7017 47.0249 16.9812 47.0525L17.7856 47.1005C18.1756 47.1484 18.5396 47.1005 18.8695 46.9272C19.2595 46.7834 19.5812 46.5805 19.8851 46.3132L20.0119 46.2173L20.6635 45.5554C20.8829 45.3065 21.1624 45.1811 21.4256 45.1811H22.2885C22.7207 45.1332 23.1172 44.6907 23.1595 44.2021L23.244 43.7117C23.244 43.3853 23.3707 43.0977 23.5657 42.847C23.7851 42.598 23.998 42.4524 24.2174 42.3565L24.479 42.2311C24.843 42.0578 25.1306 41.6928 25.2574 41.2521L25.3841 40.6566C25.4946 40.1661 25.714 39.6775 26.0357 39.3604L26.078 39.3033C26.3396 39.0636 26.3835 38.5731 26.2129 38.2284L26.1446 38.055C25.9919 37.8061 25.9675 37.4411 26.0764 37.124C26.1869 36.7773 26.2957 36.4805 26.4664 36.1836L26.6857 35.837C26.7702 35.6453 26.7702 35.3466 26.6435 35.1751C26.5086 34.9834 26.4241 34.7326 26.4241 34.4929L26.3819 34.1463V33.3111C26.4241 33.0622 26.3819 32.745 26.3136 32.4943L26.2291 32.2067L26.2194 32.1311ZM23.1221 30.2578V30.1915C23.1221 29.9425 22.9872 29.7969 22.8166 29.7969H22.2495C22.0382 29.8448 21.8172 29.8448 21.6401 29.7969H20.6667C20.1679 29.7969 19.6934 29.6918 19.2189 29.548L18.694 29.4042L18.2617 29.2511L17.2884 28.8861C16.7635 28.7128 16.3735 28.32 16.1379 27.7817L16.0274 27.5328C15.8746 27.1677 15.5529 26.9667 15.2311 27.0423C14.859 27.0423 14.495 27.0423 14.1472 26.8506L13.8856 26.7252C13.3867 26.4763 13.0227 25.9859 13.0227 25.324L12.9301 24.662C12.8716 24.3154 12.6766 24.0001 12.4134 23.8748C12.1079 23.7217 11.83 23.5281 11.5424 23.3087L11.44 23.2313C11.1101 22.9345 10.8306 22.5491 10.6779 22.079L10.6356 21.9351C10.5251 21.5406 10.5089 21.1184 10.5934 20.7054L10.6356 20.5523C10.7201 20.2352 10.7461 19.9181 10.7461 19.5733C10.7461 19.2765 10.6356 18.9778 10.4406 18.7565L10.1351 18.4394C9.78737 18.1223 9.57612 17.6521 9.55175 17.134C9.5095 16.5956 9.5095 16.0775 9.594 15.5595V15.4156C9.594 15.1188 9.37462 14.9252 9.16175 14.9252H9.0935C8.814 14.9252 8.57675 15.117 8.44187 15.4156C8.3395 15.7623 8.16237 16.0296 7.96737 16.2988L7.88287 16.4242L7.23125 17.1635C7.01187 17.4032 6.8835 17.7775 6.84125 18.1425C6.799 18.5168 6.7145 18.8819 6.57962 19.2285L6.53737 19.3539C6.42687 19.6415 6.25787 19.9199 6.0385 20.0932C5.82725 20.285 5.6745 20.5837 5.6745 20.8713L5.63225 22.0052C5.63225 22.4956 5.564 22.9935 5.41287 23.4839L5.37062 23.6756C5.26012 24.002 5.37062 24.3375 5.63225 24.4924L6.53737 24.9349L6.62187 24.9829C6.69012 24.9829 6.7145 25.0308 6.73237 25.1082C6.80062 25.2041 6.73237 25.3479 6.66412 25.3479L6.45287 25.4733C6.32612 25.5212 6.2335 25.6743 6.19125 25.8476L6.149 26.0873V26.1352L5.92962 27.518C5.88737 27.7098 5.88737 27.931 5.88737 28.1523C5.88737 28.3532 5.99787 28.5265 6.149 28.5948L6.6235 28.8437C6.84287 28.9875 7.10612 29.1608 7.27512 29.3341L7.4945 29.5351C7.553 29.631 7.6635 29.7268 7.748 29.7748L7.84062 29.8706C7.99337 30.0237 8.09412 30.2173 8.14612 30.4367L8.35737 31.5411C8.35737 31.8379 8.57675 32.0887 8.78962 32.155L9.13737 32.2804C9.13737 32.2804 9.20562 32.2804 9.24787 32.3284L9.68012 32.4814C10.0279 32.6068 10.3317 32.828 10.595 33.1156C10.8566 33.3645 11.1117 33.6817 11.3311 34.0283L11.4156 34.1242C11.5927 34.3731 11.8479 34.4985 12.1095 34.421C12.3711 34.3436 12.6506 34.3251 12.9301 34.3251H13.26C13.4712 34.3251 13.7589 34.3915 13.9961 34.5648C14.2074 34.7179 14.495 34.8137 14.7501 34.9391H14.8184C15.08 35.0645 15.3595 35.0055 15.5805 34.8432C15.7917 34.6423 16.0794 34.5464 16.3589 34.5464L17.3745 34.6128C17.5939 34.6128 17.8067 34.5648 17.9156 34.3731H17.9579L18.33 33.9785L18.4405 33.8531C18.6095 33.6135 18.8727 33.5065 19.1262 33.4881H20.1077C20.3612 33.4881 20.6066 33.2392 20.709 32.9976C20.8195 32.7487 21.0389 32.5459 21.2924 32.498L21.7327 32.4021C21.9017 32.4021 22.0545 32.2288 22.1227 32.0075C22.1812 31.7679 22.2917 31.565 22.4445 31.4212L22.7922 31.0267C23.0116 30.7778 23.1221 30.5362 23.1644 30.2394L23.1221 30.2578Z" fill="black"/>
</g>
<defs>
<clipPath id="clip0_1_68">
<rect width="52" height="59" fill="white"/>
</clipPath>
</defs>
</svg>
