<svg width="52" height="59" viewBox="0 0 52 59" fill="none" xmlns="http://www.w3.org/2000/svg">
<path d="M17.3927 45.7941C17.3927 46.0246 17.1516 46.209 16.8476 46.209C16.5016 46.2436 16.2605 46.0592 16.2605 45.7941C16.2605 45.5637 16.5016 45.3793 16.8056 45.3793C17.1202 45.3447 17.3927 45.5291 17.3927 45.7941ZM14.1323 45.2756C14.0589 45.5061 14.2685 45.7711 14.5831 45.8402C14.8556 45.9555 15.1702 45.8402 15.2331 45.6098C15.296 45.3793 15.0968 45.1143 14.7823 45.0105C14.5097 44.9299 14.2056 45.0451 14.1323 45.2756ZM18.7661 45.0797C18.4621 45.1604 18.2524 45.3793 18.2839 45.6443C18.3153 45.8748 18.5879 46.0246 18.9024 45.9439C19.2065 45.8633 19.4161 45.6443 19.3847 45.4139C19.3532 45.1949 19.0702 45.0451 18.7661 45.0797ZM25.6645 0.921875C11.1234 0.921875 0 13.0561 0 29.0391C0 41.8186 7.31774 52.7543 17.7702 56.6031C19.1121 56.8682 19.5839 55.9578 19.5839 55.2088C19.5839 54.4943 19.5524 50.5533 19.5524 48.1334C19.5524 48.1334 12.2137 49.8619 10.6726 44.6994C10.6726 44.6994 9.47742 41.3461 7.75806 40.4818C7.75806 40.4818 5.35726 38.6727 7.92581 38.7072C7.92581 38.7072 10.5363 38.9377 11.9726 41.6803C14.2685 46.1283 18.1161 44.8492 19.6153 44.0887C19.8565 42.2449 20.5379 40.9658 21.2927 40.2053C15.4323 39.4908 9.51935 38.5574 9.51935 27.4719C9.51935 24.3029 10.3161 22.7127 11.9935 20.6846C11.721 19.9355 10.8298 16.8473 12.2661 12.8602C14.4573 12.1111 19.5 15.9715 19.5 15.9715C21.5968 15.3262 23.8508 14.992 26.0839 14.992C28.3169 14.992 30.571 15.3262 32.6677 15.9715C32.6677 15.9715 37.7105 12.0996 39.9016 12.8602C41.3379 16.8588 40.4468 19.9355 40.1742 20.6846C41.8516 22.7242 42.879 24.3145 42.879 27.4719C42.879 38.592 36.704 39.4793 30.8435 40.2053C31.8081 41.1156 32.6258 42.8441 32.6258 45.5521C32.6258 49.4355 32.5944 54.2408 32.5944 55.1857C32.5944 55.9348 33.0766 56.8451 34.4081 56.5801C44.8919 52.7543 52 41.8186 52 29.0391C52 13.0561 40.2056 0.921875 25.6645 0.921875ZM10.1903 40.6662C10.054 40.7814 10.0855 41.0465 10.2637 41.2654C10.4315 41.4498 10.6726 41.5305 10.8089 41.3807C10.9452 41.2654 10.9137 41.0004 10.7355 40.7814C10.5677 40.5971 10.3266 40.5164 10.1903 40.6662ZM9.05806 39.7328C8.98468 39.8826 9.08952 40.067 9.29919 40.1822C9.46694 40.2975 9.67661 40.2629 9.75 40.1016C9.82339 39.9518 9.71855 39.7674 9.50887 39.6521C9.29919 39.583 9.13145 39.6176 9.05806 39.7328ZM12.4548 43.8352C12.2871 43.985 12.35 44.3307 12.5911 44.5496C12.8323 44.8146 13.1363 44.8492 13.2726 44.6648C13.4089 44.515 13.346 44.1693 13.1363 43.9504C12.9056 43.6854 12.5911 43.6508 12.4548 43.8352ZM11.2597 42.1412C11.0919 42.2564 11.0919 42.5561 11.2597 42.8211C11.4274 43.0861 11.7105 43.2014 11.8468 43.0861C12.0145 42.9363 12.0145 42.6367 11.8468 42.3717C11.7 42.1066 11.4274 41.9914 11.2597 42.1412Z" fill="black"/>
</svg>
