<svg width="52" height="59" viewBox="0 0 52 59" fill="none" xmlns="http://www.w3.org/2000/svg">
<g clip-path="url(#clip0_1_64)">
<path d="M3.57398 19.7166C-1.19031 25.0174 -1.19031 33.8789 3.57398 39.2834L17.3773 54.9437C22.0492 60.3482 29.8594 60.3482 34.6227 54.9437L48.425 39.2834C53.1883 33.8789 53.1883 25.0174 48.425 19.7166L34.6227 4.05509C29.8594 -1.35056 22.0492 -1.35056 17.3773 4.05509L3.57398 19.7166ZM32.043 36.3564C28.7016 40.1361 23.2984 40.1361 19.9672 36.3564C16.6258 32.5652 16.6258 26.4348 19.9672 22.6551C23.2984 18.8639 28.7016 18.8639 32.043 22.6551C35.3742 26.4348 35.3742 32.5652 32.043 36.3564Z" fill="black"/>
</g>
<defs>
<clipPath id="clip0_1_64">
<rect width="52" height="59" fill="white"/>
</clipPath>
</defs>
</svg>
