<svg width="52" height="59" viewBox="0 0 52 59" fill="none" xmlns="http://www.w3.org/2000/svg">
<path d="M11.6396 51.6251H0.858929V17.1585H11.6396V51.6251ZM6.24348 12.4569C2.79616 12.4569 0 9.62214 0 6.19968C2.46744e-08 4.55574 0.657794 2.97914 1.82867 1.81671C2.99955 0.65427 4.58761 0.0012207 6.24348 0.0012207C7.89936 0.0012207 9.48741 0.65427 10.6583 1.81671C11.8292 2.97914 12.487 4.55574 12.487 6.19968C12.487 9.62214 9.68964 12.4569 6.24348 12.4569ZM51.9884 51.6251H41.2309V34.8469C41.2309 30.8483 41.1496 25.7204 35.6258 25.7204C30.0207 25.7204 29.1618 30.0647 29.1618 34.5589V51.6251H18.3927V17.1585H28.7323V21.86H28.8832C30.3225 19.152 33.8383 16.2942 39.0836 16.2942C49.9943 16.2942 52 23.4272 52 32.6921V51.6251H51.9884Z" fill="black"/>
</svg>
