<svg width="52" height="59" viewBox="0 0 52 59" fill="none" xmlns="http://www.w3.org/2000/svg">
<path d="M46.6548 17.4828C46.6878 18.0069 46.6878 18.5311 46.6878 19.0552C46.6878 35.0405 35.9645 53.4594 16.3655 53.4594C10.3274 53.4594 4.71829 51.4751 0 48.0311C0.857898 48.1434 1.68269 48.1808 2.57359 48.1808C7.55574 48.1808 12.1421 46.2716 15.8045 43.0146C11.1193 42.9023 7.19286 39.4207 5.84005 34.6288C6.5 34.741 7.15985 34.8159 7.85281 34.8159C8.80963 34.8159 9.76655 34.6661 10.6574 34.4042C5.77413 33.281 2.11159 28.4143 2.11159 22.5368V22.3871C3.53031 23.2856 5.1802 23.8471 6.9288 23.9219C4.05823 21.7506 2.1776 18.0444 2.1776 13.8515C2.1776 11.6053 2.70542 9.54631 3.62934 7.74935C8.87555 15.0869 16.7614 19.8787 25.6039 20.4029C25.439 19.5044 25.3399 18.5686 25.3399 17.6327C25.3399 10.9689 30.0912 5.54065 35.9973 5.54065C39.0658 5.54065 41.8374 7.00067 43.7841 9.35917C46.1927 8.83509 48.5023 7.82425 50.5481 6.43913C49.7561 9.24693 48.0734 11.6054 45.8628 13.1028C48.0075 12.8409 50.0862 12.1669 51.9998 11.231C50.5483 13.6269 48.7334 15.7607 46.6548 17.4828Z" fill="black"/>
</svg>
